<?xml version="1.0" encoding="utf-8"?>
<!-- Generator: Adobe Illustrator 21.0.2, SVG Export Plug-In . SVG Version: 6.00 Build 0)  -->
<svg version="1.1" id="Ebene_1" xmlns="http://www.w3.org/2000/svg" xmlns:xlink="http://www.w3.org/1999/xlink" x="0px" y="0px"
	 viewBox="0 0 818.5 818.5" style="enable-background:new 0 0 818.5 818.5;" xml:space="preserve">
<style type="text/css">
	.st0{fill:#E9004C;}
	.st1{fill:#FFFFFF;}
	.st2{fill:none;stroke:#FFFFFF;stroke-width:9.4194;stroke-miterlimit:10;}
</style>
<g>
	<g>
		<rect class="st0" width="818.5" height="818.5"/>
		<g>
			<path class="st1" d="M80,196.8h74.1c13.7,0,24.6,3.1,32.9,9.4c8.3,6.2,12.4,15.7,12.4,28.3c0,7.7-1.9,14.2-5.7,19.7
				c-3.8,5.5-9.2,9.7-16.1,12.7v0.4c9.4,2,16.5,6.4,21.4,13.3c4.8,6.9,7.3,15.5,7.3,25.9c0,6-1.1,11.5-3.2,16.7
				c-2.1,5.2-5.5,9.6-10,13.4c-4.6,3.8-10.4,6.7-17.5,8.9c-7.1,2.2-15.6,3.3-25.4,3.3H80V196.8z M106.8,260.4h43.6
				c6.4,0,11.7-1.8,16-5.4c4.3-3.6,6.4-8.8,6.4-15.6c0-7.7-1.9-13.1-5.8-16.2c-3.8-3.1-9.4-4.7-16.7-4.7h-43.6V260.4z M106.8,327.1
				H154c8.1,0,14.4-2.1,18.9-6.3c4.5-4.2,6.7-10.1,6.7-17.8c0-7.5-2.2-13.3-6.7-17.3c-4.5-4-10.8-6.1-18.9-6.1h-47.2V327.1z"/>
			<path class="st1" d="M230.4,196.8h72.8c16.8,0,29.4,3.6,37.8,10.9c8.4,7.2,12.6,17.3,12.6,30.2c0,7.2-1.1,13.2-3.2,18
				c-2.1,4.8-4.6,8.6-7.5,11.5c-2.9,2.9-5.7,5-8.4,6.3c-2.8,1.3-4.8,2.1-6.1,2.6v0.4c2.3,0.3,4.7,1,7.4,2.1c2.6,1.1,5.1,2.9,7.4,5.4
				c2.3,2.5,4.2,5.7,5.7,9.7c1.5,4,2.2,8.9,2.2,14.9c0,8.9,0.7,17.1,2,24.4c1.4,7.3,3.5,12.5,6.3,15.6h-28.6
				c-2-3.3-3.2-6.9-3.5-10.9c-0.4-4-0.5-7.8-0.5-11.5c0-6.9-0.4-12.9-1.3-18c-0.9-5-2.4-9.2-4.7-12.6c-2.3-3.3-5.4-5.8-9.3-7.3
				c-3.9-1.6-8.9-2.3-15.1-2.3h-39.3v62.6h-26.7V196.8z M257.1,266h43.8c8.5,0,15-2,19.4-6.1c4.4-4,6.6-10.1,6.6-18.2
				c0-4.8-0.7-8.8-2.1-11.8c-1.4-3-3.4-5.4-5.9-7.1c-2.5-1.7-5.3-2.8-8.5-3.4c-3.2-0.6-6.5-0.9-9.9-0.9h-43.4V266z"/>
			<path class="st1" d="M380.8,196.8h109.8v23h-83.1v39.8h76.9v21.7h-76.9v44.5h84.6v23H380.8V196.8z"/>
			<path class="st1" d="M556.2,196.8h28.4l58.7,151.9h-28.6l-14.3-40.2h-60.9l-14.3,40.2h-27.6L556.2,196.8z M546.8,288.3h46.6
				L570.5,223h-0.6L546.8,288.3z"/>
			<path class="st1" d="M657.8,196.8h26.7V266l67.9-69.2h32.9l-60.9,60.6l65.1,91.3h-33.3l-50-72.6l-21.8,21.5v51.1h-26.7V196.8z"/>
		</g>
		<g>
			<path class="st1" d="M121.3,159.4h-3.4l-0.6-8.9h-0.1c-0.8,1.7-1.9,3.2-3.1,4.5c-1.2,1.3-2.6,2.3-4,3.1c-1.5,0.8-3.1,1.4-4.7,1.8
				c-1.7,0.4-3.4,0.6-5.2,0.6c-3.9,0-7.3-0.7-10.2-2.1c-2.9-1.4-5.4-3.3-7.3-5.6c-1.9-2.4-3.4-5.1-4.4-8.2c-1-3.1-1.5-6.3-1.5-9.7
				c0-3.3,0.5-6.6,1.5-9.7c1-3.1,2.4-5.8,4.4-8.2c1.9-2.4,4.4-4.2,7.3-5.6c2.9-1.4,6.3-2.1,10.2-2.1c2.6,0,5,0.3,7.3,1
				c2.3,0.7,4.4,1.7,6.2,3.1c1.8,1.4,3.3,3.1,4.6,5.1c1.2,2,2.1,4.4,2.5,7.1H116c-0.1-1.4-0.6-2.9-1.4-4.3c-0.8-1.4-1.9-2.8-3.2-4
				c-1.4-1.2-3-2.2-4.9-2.9c-1.9-0.8-4-1.1-6.4-1.1c-3.3,0-6.1,0.6-8.4,1.9s-4.3,2.9-5.8,4.9c-1.5,2-2.6,4.4-3.3,6.9
				c-0.7,2.6-1.1,5.2-1.1,7.9c0,2.7,0.4,5.3,1.1,7.9c0.7,2.6,1.8,4.9,3.3,6.9c1.5,2,3.4,3.7,5.8,4.9s5.2,1.9,8.4,1.9
				c2.7,0,5.1-0.4,7.3-1.3c2.1-0.9,3.9-2.1,5.4-3.7c1.5-1.6,2.6-3.5,3.3-5.7c0.7-2.2,1.1-4.6,1-7.2h-16.8v-4h20.9V159.4z"/>
			<path class="st1" d="M127.7,134.9c0-3.3,0.5-6.6,1.5-9.7c1-3.1,2.4-5.8,4.4-8.2c1.9-2.4,4.4-4.2,7.3-5.6
				c2.9-1.4,6.3-2.1,10.2-2.1c3.9,0,7.3,0.7,10.2,2.1c2.9,1.4,5.3,3.3,7.3,5.6c1.9,2.4,3.4,5.1,4.4,8.2c1,3.1,1.5,6.3,1.5,9.7
				c0,3.3-0.5,6.6-1.5,9.7c-1,3.1-2.4,5.8-4.4,8.2c-1.9,2.4-4.4,4.2-7.3,5.6c-2.9,1.4-6.3,2.1-10.2,2.1c-3.9,0-7.3-0.7-10.2-2.1
				c-2.9-1.4-5.4-3.3-7.3-5.6c-1.9-2.4-3.4-5.1-4.4-8.2C128.2,141.4,127.7,138.2,127.7,134.9z M132.4,134.9c0,2.7,0.4,5.3,1.1,7.9
				c0.7,2.6,1.8,4.9,3.3,6.9c1.5,2,3.4,3.7,5.8,4.9c2.3,1.2,5.2,1.9,8.4,1.9c3.2,0,6-0.6,8.4-1.9c2.3-1.2,4.3-2.9,5.8-4.9
				c1.5-2,2.6-4.3,3.3-6.9c0.7-2.6,1.1-5.2,1.1-7.9c0-2.7-0.4-5.3-1.1-7.9c-0.7-2.6-1.8-4.9-3.3-6.9c-1.5-2-3.4-3.7-5.8-4.9
				c-2.3-1.2-5.1-1.9-8.4-1.9c-3.3,0-6.1,0.6-8.4,1.9c-2.3,1.2-4.3,2.9-5.8,4.9c-1.5,2-2.6,4.4-3.3,6.9
				C132.7,129.6,132.4,132.2,132.4,134.9z"/>
			<path class="st1" d="M73.8,385.5h39.1v4H95.7v45.1H91v-45.1H73.8V385.5z"/>
			<path class="st1" d="M117.5,385.5h4.7v21.3h29.3v-21.3h4.7v49.1h-4.7v-23.8h-29.3v23.8h-4.7V385.5z"/>
			<path class="st1" d="M166.2,385.5h34v4h-29.4v17.8h27.5v4h-27.5v19.4h29.7v4h-34.4V385.5z"/>
			<path class="st1" d="M226.3,385.5h4.7v21.3h29.3v-21.3h4.7v49.1h-4.7v-23.8H231v23.8h-4.7V385.5z"/>
			<path class="st1" d="M275.3,385.5h4.7v49.1h-4.7V385.5z"/>
			<path class="st1" d="M332.4,434.6H329l-0.6-8.9h-0.1c-0.8,1.7-1.9,3.2-3.1,4.5c-1.2,1.3-2.6,2.3-4,3.1c-1.5,0.8-3.1,1.4-4.7,1.8
				c-1.7,0.4-3.4,0.6-5.2,0.6c-3.9,0-7.3-0.7-10.2-2.1c-2.9-1.4-5.4-3.3-7.3-5.6c-1.9-2.4-3.4-5.1-4.4-8.2c-1-3.1-1.5-6.3-1.5-9.7
				c0-3.3,0.5-6.6,1.5-9.7c1-3.1,2.4-5.8,4.4-8.2c1.9-2.4,4.4-4.2,7.3-5.6c2.9-1.4,6.3-2.1,10.2-2.1c2.6,0,5,0.3,7.3,1
				c2.3,0.7,4.4,1.7,6.2,3.1c1.8,1.4,3.3,3.1,4.6,5.1c1.2,2,2.1,4.4,2.5,7.1h-4.7c-0.1-1.4-0.6-2.9-1.4-4.3c-0.8-1.4-1.9-2.8-3.2-4
				c-1.4-1.2-3-2.2-4.9-2.9c-1.9-0.8-4-1.1-6.4-1.1c-3.3,0-6.1,0.6-8.4,1.9s-4.3,2.9-5.8,4.9c-1.5,2-2.6,4.4-3.3,6.9
				c-0.7,2.6-1.1,5.2-1.1,7.9c0,2.7,0.4,5.3,1.1,7.9c0.7,2.6,1.8,4.9,3.3,6.9c1.5,2,3.4,3.7,5.8,4.9c2.3,1.2,5.2,1.9,8.4,1.9
				c2.7,0,5.1-0.4,7.3-1.3c2.1-0.9,3.9-2.1,5.4-3.7c1.5-1.6,2.6-3.5,3.3-5.7c0.7-2.2,1.1-4.6,1-7.2h-16.8v-4h20.9V434.6z"/>
			<path class="st1" d="M341.4,385.5h4.7v21.3h29.3v-21.3h4.7v49.1h-4.7v-23.8h-29.3v23.8h-4.7V385.5z"/>
			<path class="st1" d="M392.3,418.5c0,2.5,0.3,4.6,1.2,6.3c0.8,1.7,2,3.1,3.4,4.1c1.5,1,3.2,1.7,5.1,2.2c2,0.4,4.1,0.7,6.4,0.7
				c1.3,0,2.7-0.2,4.2-0.6c1.5-0.4,2.9-1,4.2-1.8c1.3-0.8,2.4-1.8,3.3-3.1c0.9-1.3,1.3-2.8,1.3-4.6c0-1.4-0.3-2.6-0.9-3.6
				c-0.6-1-1.4-1.9-2.4-2.5c-1-0.7-2.1-1.2-3.3-1.7c-1.2-0.4-2.4-0.8-3.5-1.1l-11-2.7c-1.5-0.4-2.9-0.8-4.2-1.4
				c-1.3-0.6-2.5-1.3-3.5-2.2c-1-0.9-1.8-2-2.5-3.4c-0.6-1.3-0.9-3-0.9-4.9c0-1.2,0.2-2.6,0.7-4.2c0.5-1.6,1.3-3.1,2.6-4.5
				c1.3-1.4,3-2.6,5.2-3.6c2.2-1,5-1.5,8.5-1.5c2.4,0,4.8,0.3,7,1c2.2,0.6,4.2,1.6,5.8,2.9c1.7,1.3,3,2.9,4,4.8
				c1,1.9,1.5,4.1,1.5,6.6h-4.7c-0.1-1.9-0.5-3.5-1.2-4.9c-0.7-1.4-1.7-2.6-3-3.5c-1.2-0.9-2.7-1.7-4.2-2.1c-1.6-0.5-3.3-0.7-5-0.7
				c-1.6,0-3.2,0.2-4.7,0.5c-1.5,0.3-2.8,0.9-3.9,1.7c-1.1,0.8-2,1.8-2.7,3s-1,2.8-1,4.6c0,1.1,0.2,2.1,0.6,3
				c0.4,0.8,0.9,1.6,1.6,2.1c0.7,0.6,1.5,1.1,2.4,1.4c0.9,0.4,1.9,0.7,2.9,0.9l12,3c1.7,0.5,3.4,1,4.9,1.7c1.5,0.7,2.9,1.5,4.1,2.5
				c1.2,1,2.1,2.2,2.8,3.6c0.7,1.4,1,3.1,1,5.2c0,0.6-0.1,1.3-0.2,2.2c-0.1,0.9-0.4,1.9-0.8,2.9c-0.4,1-1.1,2.1-1.9,3.1
				c-0.8,1.1-1.9,2-3.3,2.9c-1.4,0.9-3.1,1.6-5.2,2.1c-2.1,0.5-4.6,0.8-7.5,0.8s-5.6-0.3-8.1-1c-2.5-0.7-4.6-1.7-6.4-3.1
				c-1.8-1.4-3.1-3.2-4-5.4c-0.9-2.2-1.3-4.8-1.2-7.7H392.3z"/>
			<path class="st1" d="M469.6,400.4c-0.4-1.9-1.1-3.6-2-5.1c-0.9-1.5-2.1-2.7-3.5-3.7c-1.4-1-2.9-1.8-4.5-2.3
				c-1.6-0.5-3.3-0.8-5.1-0.8c-3.3,0-6.1,0.6-8.4,1.9s-4.3,2.9-5.8,4.9c-1.5,2-2.6,4.4-3.3,6.9c-0.7,2.6-1.1,5.2-1.1,7.9
				c0,2.7,0.4,5.3,1.1,7.9c0.7,2.6,1.8,4.9,3.3,6.9c1.5,2,3.4,3.7,5.8,4.9c2.3,1.2,5.2,1.9,8.4,1.9c2.3,0,4.3-0.4,6.2-1.2
				c1.9-0.8,3.5-1.9,4.8-3.4c1.3-1.4,2.4-3.1,3.2-5c0.8-1.9,1.4-4,1.6-6.2h4.7c-0.3,3-1,5.8-2.1,8.2c-1.1,2.4-2.5,4.5-4.3,6.2
				c-1.8,1.7-3.8,3-6.2,4c-2.4,0.9-5,1.4-7.9,1.4c-3.9,0-7.3-0.7-10.2-2.1c-2.9-1.4-5.4-3.3-7.3-5.6c-1.9-2.4-3.4-5.1-4.4-8.2
				c-1-3.1-1.5-6.3-1.5-9.7c0-3.3,0.5-6.6,1.5-9.7c1-3.1,2.4-5.8,4.4-8.2c1.9-2.4,4.4-4.2,7.3-5.6c2.9-1.4,6.3-2.1,10.2-2.1
				c2.3,0,4.6,0.3,6.9,1c2.2,0.7,4.3,1.7,6.1,3.1c1.8,1.4,3.3,3,4.6,5c1.2,2,2,4.2,2.3,6.8H469.6z"/>
			<path class="st1" d="M479.6,410.1c0-3.3,0.5-6.6,1.5-9.7c1-3.1,2.4-5.8,4.4-8.2c1.9-2.4,4.4-4.2,7.3-5.6
				c2.9-1.4,6.3-2.1,10.2-2.1c3.9,0,7.3,0.7,10.2,2.1c2.9,1.4,5.3,3.3,7.3,5.6c1.9,2.4,3.4,5.1,4.4,8.2c1,3.1,1.5,6.3,1.5,9.7
				c0,3.3-0.5,6.6-1.5,9.7c-1,3.1-2.4,5.8-4.4,8.2c-1.9,2.4-4.4,4.2-7.3,5.6c-2.9,1.4-6.3,2.1-10.2,2.1c-3.9,0-7.3-0.7-10.2-2.1
				c-2.9-1.4-5.4-3.3-7.3-5.6c-1.9-2.4-3.4-5.1-4.4-8.2C480,416.6,479.6,413.4,479.6,410.1z M484.2,410.1c0,2.7,0.4,5.3,1.1,7.9
				c0.7,2.6,1.8,4.9,3.3,6.9c1.5,2,3.4,3.7,5.8,4.9c2.3,1.2,5.2,1.9,8.4,1.9c3.2,0,6-0.6,8.4-1.9c2.3-1.2,4.3-2.9,5.8-4.9
				c1.5-2,2.6-4.3,3.3-6.9c0.7-2.6,1.1-5.2,1.1-7.9c0-2.7-0.4-5.3-1.1-7.9c-0.7-2.6-1.8-4.9-3.3-6.9c-1.5-2-3.4-3.7-5.8-4.9
				c-2.3-1.2-5.1-1.9-8.4-1.9c-3.3,0-6.1,0.6-8.4,1.9c-2.3,1.2-4.3,2.9-5.8,4.9c-1.5,2-2.6,4.4-3.3,6.9
				C484.6,404.8,484.2,407.4,484.2,410.1z"/>
			<path class="st1" d="M533.3,385.5h22.6c2,0,3.9,0.3,5.8,0.8c1.8,0.5,3.4,1.3,4.8,2.3c1.4,1,2.4,2.4,3.2,4
				c0.8,1.6,1.2,3.5,1.2,5.7c0,3.1-0.8,5.8-2.4,8.1c-1.6,2.3-4,3.8-7.2,4.4v0.1c1.6,0.2,2.9,0.7,4,1.3c1.1,0.6,1.9,1.4,2.6,2.4
				c0.7,1,1.2,2.1,1.5,3.3c0.3,1.3,0.5,2.6,0.6,4.1c0,0.8,0.1,1.8,0.1,3c0,1.2,0.1,2.4,0.3,3.6c0.1,1.2,0.4,2.4,0.7,3.4
				c0.3,1.1,0.7,1.9,1.2,2.5h-5.2c-0.3-0.5-0.5-1-0.7-1.7c-0.2-0.7-0.3-1.4-0.4-2.1c-0.1-0.7-0.2-1.4-0.2-2.1c0-0.7-0.1-1.3-0.1-1.8
				c-0.1-1.7-0.2-3.4-0.4-5.2c-0.2-1.7-0.6-3.3-1.3-4.6c-0.7-1.4-1.6-2.4-2.9-3.3c-1.3-0.8-3-1.2-5.2-1.1H538v21.8h-4.7V385.5z
				 M538,408.8h17.5c1.4,0,2.8-0.2,4.1-0.7c1.3-0.4,2.4-1.1,3.4-1.9c1-0.8,1.7-1.8,2.3-3c0.6-1.2,0.9-2.5,0.9-4c0-3-0.9-5.4-2.7-7.2
				c-1.8-1.7-4.4-2.6-8-2.6H538V408.8z"/>
			<path class="st1" d="M579.4,385.5h34v4h-29.4v17.8h27.5v4h-27.5v19.4h29.7v4h-34.4V385.5z"/>
			<path class="st1" d="M622.1,434.6v-7.3h5.8v7.3H622.1z"/>
			<path class="st1" d="M79.5,454.3h4.7v49.1h-4.7V454.3z"/>
			<path class="st1" d="M94.4,454.3h5.2l28.7,41.6h0.1v-41.6h4.7v49.1H128l-28.7-41.6h-0.1v41.6h-4.7V454.3z"/>
			<path class="st1" d="M162.3,454.3h4.7v45.1h27.6v4h-32.3V454.3z"/>
			<path class="st1" d="M199.4,454.3h34v4h-29.4V476h27.5v4h-27.5v19.4h29.7v4h-34.4V454.3z"/>
			<path class="st1" d="M242.5,487.2c0,2.5,0.3,4.6,1.2,6.3c0.8,1.7,2,3.1,3.4,4.1c1.5,1,3.2,1.7,5.1,2.2c2,0.4,4.1,0.7,6.4,0.7
				c1.3,0,2.7-0.2,4.2-0.6c1.5-0.4,2.9-1,4.2-1.8s2.4-1.8,3.3-3.1c0.9-1.3,1.3-2.8,1.3-4.6c0-1.4-0.3-2.6-0.9-3.6
				c-0.6-1-1.4-1.9-2.4-2.5c-1-0.7-2.1-1.2-3.3-1.7c-1.2-0.4-2.4-0.8-3.5-1.1l-11-2.7c-1.5-0.4-2.9-0.8-4.2-1.4
				c-1.3-0.6-2.5-1.3-3.5-2.2c-1-0.9-1.8-2-2.5-3.4s-0.9-3-0.9-4.9c0-1.2,0.2-2.6,0.7-4.2c0.5-1.6,1.3-3.1,2.6-4.5
				c1.3-1.4,3-2.6,5.2-3.6c2.2-1,5-1.5,8.5-1.5c2.4,0,4.8,0.3,7,1s4.2,1.6,5.8,2.9c1.7,1.3,3,2.9,4,4.8s1.5,4.1,1.5,6.6H270
				c-0.1-1.9-0.5-3.5-1.2-4.9c-0.7-1.4-1.7-2.6-3-3.5c-1.2-0.9-2.7-1.7-4.2-2.1c-1.6-0.5-3.3-0.7-5-0.7c-1.6,0-3.2,0.2-4.7,0.5
				c-1.5,0.3-2.8,0.9-3.9,1.7c-1.1,0.8-2,1.8-2.7,3s-1,2.8-1,4.6c0,1.1,0.2,2.1,0.6,3c0.4,0.8,0.9,1.6,1.6,2.1
				c0.7,0.6,1.5,1.1,2.4,1.4c0.9,0.4,1.9,0.7,2.9,0.9l12,3c1.7,0.5,3.4,1,4.9,1.7c1.5,0.7,2.9,1.5,4.1,2.5c1.2,1,2.1,2.2,2.8,3.6
				c0.7,1.4,1,3.1,1,5.2c0,0.6-0.1,1.3-0.2,2.2c-0.1,0.9-0.4,1.9-0.8,2.9c-0.4,1-1.1,2.1-1.9,3.1c-0.8,1.1-1.9,2-3.3,2.9
				c-1.4,0.9-3.1,1.6-5.2,2.1c-2.1,0.5-4.6,0.8-7.5,0.8c-2.9,0-5.6-0.3-8.1-1c-2.5-0.7-4.6-1.7-6.4-3.1c-1.8-1.4-3.1-3.2-4-5.4
				c-0.9-2.2-1.3-4.8-1.2-7.7H242.5z"/>
			<path class="st1" d="M286,487.2c0,2.5,0.3,4.6,1.2,6.3c0.8,1.7,2,3.1,3.4,4.1c1.5,1,3.2,1.7,5.1,2.2c2,0.4,4.1,0.7,6.4,0.7
				c1.3,0,2.7-0.2,4.2-0.6c1.5-0.4,2.9-1,4.2-1.8s2.4-1.8,3.3-3.1c0.9-1.3,1.3-2.8,1.3-4.6c0-1.4-0.3-2.6-0.9-3.6
				c-0.6-1-1.4-1.9-2.4-2.5c-1-0.7-2.1-1.2-3.3-1.7c-1.2-0.4-2.4-0.8-3.5-1.1l-11-2.7c-1.5-0.4-2.9-0.8-4.2-1.4
				c-1.3-0.6-2.5-1.3-3.5-2.2c-1-0.9-1.8-2-2.5-3.4s-0.9-3-0.9-4.9c0-1.2,0.2-2.6,0.7-4.2c0.5-1.6,1.3-3.1,2.6-4.5
				c1.3-1.4,3-2.6,5.2-3.6c2.2-1,5-1.5,8.5-1.5c2.4,0,4.8,0.3,7,1s4.2,1.6,5.8,2.9c1.7,1.3,3,2.9,4,4.8s1.5,4.1,1.5,6.6h-4.7
				c-0.1-1.9-0.5-3.5-1.2-4.9c-0.7-1.4-1.7-2.6-3-3.5c-1.2-0.9-2.7-1.7-4.2-2.1c-1.6-0.5-3.3-0.7-5-0.7c-1.6,0-3.2,0.2-4.7,0.5
				c-1.5,0.3-2.8,0.9-3.9,1.7c-1.1,0.8-2,1.8-2.7,3s-1,2.8-1,4.6c0,1.1,0.2,2.1,0.6,3c0.4,0.8,0.9,1.6,1.6,2.1
				c0.7,0.6,1.5,1.1,2.4,1.4c0.9,0.4,1.9,0.7,2.9,0.9l12,3c1.7,0.5,3.4,1,4.9,1.7c1.5,0.7,2.9,1.5,4.1,2.5c1.2,1,2.1,2.2,2.8,3.6
				c0.7,1.4,1,3.1,1,5.2c0,0.6-0.1,1.3-0.2,2.2c-0.1,0.9-0.4,1.9-0.8,2.9c-0.4,1-1.1,2.1-1.9,3.1c-0.8,1.1-1.9,2-3.3,2.9
				c-1.4,0.9-3.1,1.6-5.2,2.1c-2.1,0.5-4.6,0.8-7.5,0.8s-5.6-0.3-8.1-1c-2.5-0.7-4.6-1.7-6.4-3.1c-1.8-1.4-3.1-3.2-4-5.4
				c-0.9-2.2-1.3-4.8-1.2-7.7H286z"/>
			<path class="st1" d="M341.2,454.3h39.1v4h-17.2v45.1h-4.7v-45.1h-17.2V454.3z"/>
			<path class="st1" d="M385.3,454.3h4.7v49.1h-4.7V454.3z"/>
			<path class="st1" d="M400.1,454.3h6.9l17.1,43.1l17-43.1h6.9v49.1h-4.7V461h-0.1l-16.9,42.4h-4.4L405,461h-0.1v42.4h-4.7V454.3z"
				/>
			<path class="st1" d="M457.8,454.3h34v4h-29.4V476H490v4h-27.5v19.4h29.7v4h-34.4V454.3z"/>
			<path class="st1" d="M500.5,503.4v-7.3h5.8v7.3H500.5z"/>
		</g>
	</g>
	<line class="st2" x1="6.1" y1="154.2" x2="65.9" y2="154.2"/>
</g>
</svg>
