<?xml version="1.0" encoding="utf-8"?>
<!-- Generator: Adobe Illustrator 16.0.0, SVG Export Plug-In . SVG Version: 6.00 Build 0)  -->
<!DOCTYPE svg PUBLIC "-//W3C//DTD SVG 1.1//EN" "http://www.w3.org/Graphics/SVG/1.1/DTD/svg11.dtd">
<svg version="1.1" id="Layer_1" xmlns="http://www.w3.org/2000/svg" xmlns:xlink="http://www.w3.org/1999/xlink" x="0px" y="0px"
	 width="501.61px" height="56.385px" viewBox="0 0 501.61 56.385" enable-background="new 0 0 501.61 56.385" xml:space="preserve">
<g>
	<rect fill="#ED145B" width="56.385" height="56.385"/>
	<g>
		<path fill="#FFFFFF" d="M116.52,19.775c-2.032-2.031-4.593-2.192-4.878-2.204l-43.204-0.002c-3.557,0-6.451,2.898-6.453,6.454
			h-0.002c0,3.557,2.895,6.445,6.453,6.445h31.127c1.166,0,2.115,0.948,2.115,2.114s-0.949,2.114-2.115,2.114v0.002H39.029v4.338
			h60.548v-0.003c3.551-0.009,6.438-2.899,6.438-6.451c0-3.556-2.892-6.448-6.448-6.451V26.13H68.436
			c-1.164,0-2.112-0.94-2.114-2.103h0.001c0-1.166,0.949-2.121,2.115-2.121h43.046c0.153,0.016,1.188,0.156,1.968,0.935
			l12.991,12.944l3.067-3.066L116.52,19.775z"/>
		<path fill="#FFFFFF" d="M296.038,24.015c-0.005-3.548-2.89-6.435-6.438-6.443v-0.003h-30.623v0.002
			c-3.558,0-6.453,2.894-6.453,6.452v25.501h4.338V24.023c0-1.166,0.949-2.117,2.115-2.117h30.607v0.002
			c1.166,0,2.114,0.949,2.114,2.115v8.562c0,1.166-0.971,2.114-2.137,2.114h-25.96v4.337h25.96c3.56,0,6.477-2.894,6.477-6.451
			L296.038,24.015L296.038,24.015z"/>
		<path fill="#FFFFFF" d="M433.979,17.569h-30.724c-3.558,0-6.453,2.894-6.453,6.452v6.447h4.338v-6.447
			c0-1.166,0.949-2.115,2.115-2.115h30.724c1.165,0,2.115,0.949,2.115,2.115v8.564c0,1.166-0.95,2.114-2.115,2.114h-79.057v-0.002
			c-1.165,0-2.112-0.947-2.115-2.111h0.001V24.02c0-1.165,0.972-2.114,2.138-2.114h26.597v-4.337h-26.597
			c-3.559,0-6.477,2.894-6.477,6.451v8.562h-0.001c0,3.557,2.896,6.452,6.454,6.452v0.002h79.057c3.559,0,6.453-2.894,6.453-6.451
			v-8.564C440.433,20.463,437.538,17.569,433.979,17.569"/>
		<path fill="#FFFFFF" d="M200.554,24.363c0-3.746-3.049-6.794-6.797-6.794h-29.95c-3.748,0-6.797,3.048-6.797,6.794v14.673h4.338
			V24.363c0-1.355,1.103-2.457,2.459-2.457h29.95c1.356,0,2.471,1.102,2.471,2.457v14.673h4.338V24.363H200.554z"/>
		<path fill="#FFFFFF" d="M488.722,24.363c0-3.746-3.049-6.794-6.797-6.794h-29.949c-3.748,0-6.798,3.048-6.798,6.794v14.673h4.339
			V24.363c0-1.355,1.103-2.457,2.459-2.457h29.949c1.356,0,2.472,1.102,2.472,2.457v14.673h4.338V24.363H488.722z"/>
		<path fill="#FFFFFF" d="M339.843,32.584c0,1.166-0.949,2.114-2.115,2.114h-30.376c-1.354,0-2.458-1.102-2.458-2.457V21.906
			l9.03,0.001v-4.337l-9.03-0.001V6.058h-4.338v26.184c0,3.747,3.048,6.794,6.796,6.794h30.387v-0.001
			c3.555-0.006,6.442-2.897,6.442-6.45V17.568h-4.338V32.584z"/>
		<path fill="#FFFFFF" d="M343.362,7.326l-1.594-1.47c-0.194,0.209-1.893,2.133-1.893,5.007v1.733h4.34v-1.733
			c0-1.195,0.755-2.081,0.763-2.09L343.362,7.326z"/>
		<path fill="#FFFFFF" d="M241.863,17.569h-0.003h-30.312c-3.557,0.002-6.45,2.937-6.45,6.493v8.523
			c0,3.557,2.894,6.451,6.453,6.451h25.276v-4.341l-25.276,0.004c-1.166,0-2.115-0.949-2.115-2.114v-8.523
			c0-1.166,0.99-2.155,2.156-2.155h0.003l30.268-0.001c1.166,0,2.115,0.949,2.115,2.114v15.016h4.338V24.02
			C248.316,20.463,245.421,17.569,241.863,17.569"/>
		<path fill="#FFFFFF" d="M500.562,23.571c-0.698,0.703-1.544,1.053-2.534,1.053c-0.992,0-1.837-0.35-2.531-1.053
			c-0.691-0.698-1.038-1.544-1.038-2.538c0-0.985,0.35-1.827,1.048-2.525c0.696-0.695,1.536-1.043,2.521-1.043
			c0.99,0,1.836,0.348,2.534,1.043c0.698,0.696,1.049,1.537,1.049,2.525C501.61,22.023,501.26,22.87,500.562,23.571 M495.853,18.858
			c-0.599,0.602-0.897,1.327-0.897,2.178c0,0.858,0.298,1.589,0.893,2.193c0.599,0.605,1.323,0.907,2.18,0.907
			c0.854,0,1.581-0.302,2.179-0.907c0.598-0.604,0.896-1.335,0.896-2.193c0-0.851-0.299-1.576-0.896-2.178
			c-0.602-0.604-1.328-0.906-2.179-0.906C497.178,17.953,496.454,18.254,495.853,18.858 M497.959,19.059
			c0.487,0,0.845,0.047,1.072,0.142c0.405,0.169,0.608,0.5,0.608,0.995c0,0.351-0.128,0.609-0.383,0.775
			c-0.136,0.088-0.325,0.151-0.568,0.191c0.308,0.047,0.532,0.177,0.675,0.384c0.142,0.208,0.213,0.41,0.213,0.608v0.288
			c0,0.09,0.004,0.188,0.01,0.292c0.006,0.103,0.019,0.172,0.035,0.204l0.024,0.049h-0.648c-0.004-0.013-0.007-0.026-0.01-0.039
			c-0.004-0.013-0.008-0.028-0.011-0.044l-0.015-0.126v-0.311c0-0.453-0.123-0.753-0.37-0.898c-0.146-0.085-0.403-0.127-0.771-0.127
			h-0.547v1.545h-0.691v-3.928H497.959z M498.706,19.678c-0.174-0.098-0.454-0.146-0.839-0.146h-0.593v1.422h0.627
			c0.294,0,0.515-0.028,0.66-0.086c0.271-0.108,0.405-0.313,0.405-0.616C498.967,19.966,498.88,19.775,498.706,19.678"/>
		<path fill="#FFFFFF" d="M149.779,17.569c-0.093,0.404-0.321,1.084-0.881,1.643L132.54,35.57c-1.765,1.865-1.806,4.352-1.797,4.825
			v9.127h4.338V40.37l0.001-0.015l-0.002-0.038c-0.003-0.308,0.101-1.226,0.612-1.766l16.279-16.277
			c1.685-1.684,2.083-3.85,2.176-4.704H149.779z"/>
	</g>
</g>
</svg>
