<?xml version="1.0" encoding="utf-8"?>
<!-- Generator: Adobe Illustrator 16.0.0, SVG Export Plug-In . SVG Version: 6.00 Build 0)  -->
<!DOCTYPE svg PUBLIC "-//W3C//DTD SVG 1.1//EN" "http://www.w3.org/Graphics/SVG/1.1/DTD/svg11.dtd">
<svg version="1.1" id="Ebene_2" xmlns="http://www.w3.org/2000/svg" xmlns:xlink="http://www.w3.org/1999/xlink" x="0px" y="0px"
	 width="362.52px" height="35.316px" viewBox="72.891 289.521 362.52 35.316" enable-background="new 72.891 289.521 362.52 35.316"
	 xml:space="preserve">
<path id="XMLID_63_" fill="#FFFFFF" d="M135.3,300.729c-1.613-1.613-3.709-1.774-3.951-1.774H96.516l0,0
	c-2.903,0-5.241,2.338-5.241,5.241l0,0c0,2.903,2.338,5.16,5.241,5.16l0,0h25.076l0,0c0.968,0,1.693,0.726,1.693,1.693
	c0,0.968-0.726,1.693-1.693,1.693l0,0H72.891v3.467h48.782l0,0c2.902,0,5.16-2.338,5.16-5.241s-2.338-5.161-5.16-5.241l0,0H96.597
	l0,0c-0.968,0-1.693-0.726-1.693-1.693l0,0c0-0.968,0.726-1.693,1.693-1.693l0,0h34.671c0.162,0,0.968,0.161,1.613,0.726
	l10.482,10.401l2.5-2.5L135.3,300.729z"/>
<path id="XMLID_60_" fill="#FFFFFF" d="M280.114,304.196c0-2.822-2.339-5.161-5.161-5.161l0,0H250.28l0,0
	c-2.902,0-5.241,2.338-5.241,5.241v20.561h3.468v-20.642c0-0.968,0.726-1.693,1.692-1.693l0,0h24.674l0,0
	c0.968,0,1.693,0.726,1.693,1.693l0,0v6.934l0,0c0,0.968-0.807,1.693-1.693,1.693h-20.964v3.467h20.964
	c2.902,0,5.241-2.338,5.241-5.241l0,0V304.196L280.114,304.196z"/>
<path id="XMLID_59_" fill="#FFFFFF" d="M391.306,298.955h-24.754c-2.903,0-5.241,2.338-5.241,5.241v5.16h3.467v-5.16
	c0-0.968,0.726-1.693,1.693-1.693h24.754c0.968,0,1.693,0.726,1.693,1.693v6.934c0,0.968-0.726,1.693-1.693,1.693h-63.779l0,0
	c-0.968,0-1.693-0.726-1.693-1.693l0,0v-6.934l0,0c0-0.968,0.806-1.693,1.693-1.693h21.447v-3.467h-21.447
	c-2.903,0-5.241,2.338-5.241,5.241l0,0v6.934l0,0c0,2.903,2.338,5.241,5.241,5.241l0,0h63.779c2.902,0,5.241-2.338,5.241-5.241
	v-6.934C396.546,301.293,394.208,298.955,391.306,298.955z"/>
<path id="XMLID_58_" fill="#FFFFFF" d="M203.111,304.438c0-2.983-2.419-5.483-5.483-5.483h-24.109c-2.983,0-5.483,2.419-5.483,5.483
	v11.853h3.467v-11.853c0-1.129,0.887-2.016,2.016-2.016h24.109c1.129,0,2.016,0.887,2.016,2.016l0,0v11.853h3.467V304.438
	L203.111,304.438z"/>
<path id="XMLID_35_" fill="#FFFFFF" d="M435.411,304.438c0-2.983-2.419-5.483-5.483-5.483h-24.108c-2.983,0-5.483,2.419-5.483,5.483
	v11.853h3.467v-11.853c0-1.129,0.888-2.016,2.017-2.016h24.108c1.129,0,2.016,0.887,2.016,2.016l0,0v11.853h3.468V304.438
	L435.411,304.438z"/>
<g id="XMLID_55_">
	<path id="XMLID_57_" fill="#FFFFFF" d="M315.431,311.05c0,0.968-0.726,1.693-1.693,1.693h-24.512c-1.129,0-2.016-0.887-2.016-2.016
		v-8.225h7.257v-3.467h-7.257v-9.353h-3.468v21.125c0,2.983,2.42,5.483,5.483,5.483h24.512l0,0c2.903,0,5.161-2.338,5.161-5.241
		v-12.095h-3.468V311.05z"/>
	<path id="XMLID_56_" fill="#FFFFFF" d="M318.253,290.73l-1.29-1.209c-0.161,0.161-1.532,1.693-1.532,4.031v1.371h3.468v-1.371
		c0-0.967,0.645-1.693,0.645-1.693L318.253,290.73z"/>
</g>
<path id="XMLID_54_" fill="#FFFFFF" d="M236.412,298.955L236.412,298.955H211.98l0,0c-2.903,0-5.241,2.338-5.241,5.241v6.854
	c0,2.903,2.338,5.241,5.241,5.241l0,0h20.4v-3.467h-20.4c-0.968,0-1.693-0.726-1.693-1.693v-6.854c0-0.968,0.807-1.774,1.774-1.774
	l0,0h24.432c0.967,0,1.693,0.726,1.693,1.693v12.095h3.466v-12.095C241.572,301.293,239.234,298.955,236.412,298.955z"/>
<path id="XMLID_33_" fill="#FFFFFF" d="M162.15,298.955c-0.081,0.323-0.242,0.887-0.726,1.29l-13.223,13.224
	c-1.452,1.532-1.452,3.548-1.452,3.871v7.337h3.467v-7.418l0,0l0,0c0-0.242,0.081-0.968,0.484-1.452l13.143-13.143
	c1.371-1.371,1.693-3.145,1.774-3.79h-3.467V298.955z"/>
</svg>
