<?xml version="1.0" encoding="utf-8"?>
<!-- Generator: Adobe Illustrator 21.0.2, SVG Export Plug-In . SVG Version: 6.00 Build 0)  -->
<svg version="1.1" id="Ebene_1" xmlns="http://www.w3.org/2000/svg" xmlns:xlink="http://www.w3.org/1999/xlink" x="0px" y="0px"
	 viewBox="0 0 373 48" style="enable-background:new 0 0 373 48;" xml:space="preserve">
<style type="text/css">
	.st0{clip-path:url(#SVGID_2_);}
	.st1{clip-path:url(#SVGID_4_);fill:#181716;}
</style>
<g>
	<g>
		<defs>
			<rect id="SVGID_1_" x="-67.3" y="-39" width="481.1" height="149"/>
		</defs>
		<clipPath id="SVGID_2_">
			<use xlink:href="#SVGID_1_"  style="overflow:visible;"/>
		</clipPath>
		<g class="st0">
			<defs>
				<rect id="SVGID_3_" x="-67.3" y="-39" width="481.1" height="149"/>
			</defs>
			<clipPath id="SVGID_4_">
				<use xlink:href="#SVGID_3_"  style="overflow:visible;"/>
			</clipPath>
			<path class="st1" d="M68.4,16.2c-1.6-1.6-3.7-1.8-3.9-1.8l-34.9,0c-2.9,0-5.2,2.3-5.2,5.2h0c0,2.9,2.3,5.2,5.2,5.2h25.2
				c0.9,0,1.7,0.8,1.7,1.7c0,0.9-0.8,1.7-1.7,1.7v0H5.8v3.5h48.9v0c2.9,0,5.2-2.3,5.2-5.2c0-2.9-2.3-5.2-5.2-5.2v0H29.5
				c-0.9,0-1.7-0.8-1.7-1.7h0c0-0.9,0.8-1.7,1.7-1.7h34.8c0.1,0,1,0.1,1.6,0.8l10.5,10.5l2.5-2.5L68.4,16.2z"/>
			<path class="st1" d="M213.5,19.6c0-2.9-2.3-5.2-5.2-5.2v0h-24.8v0c-2.9,0-5.2,2.3-5.2,5.2v20.6h3.5V19.7c0-0.9,0.8-1.7,1.7-1.7
				h24.7v0c0.9,0,1.7,0.8,1.7,1.7h0v6.9c0,0.9-0.8,1.7-1.7,1.7h-21v3.5h21c2.9,0,5.2-2.3,5.2-5.2L213.5,19.6L213.5,19.6z"/>
			<path class="st1" d="M325,14.4h-24.8c-2.9,0-5.2,2.3-5.2,5.2v5.2h3.5v-5.2c0-0.9,0.8-1.7,1.7-1.7H325c0.9,0,1.7,0.8,1.7,1.7v6.9
				c0,0.9-0.8,1.7-1.7,1.7h-63.9v0c-0.9,0-1.7-0.8-1.7-1.7h0v-6.9c0-0.9,0.8-1.7,1.7-1.7h21.5v-3.5h-21.5c-2.9,0-5.2,2.3-5.2,5.2
				v6.9h0c0,2.9,2.3,5.2,5.2,5.2v0H325c2.9,0,5.2-2.3,5.2-5.2v-6.9C330.2,16.8,327.9,14.4,325,14.4"/>
			<path class="st1" d="M136.3,19.9c0-3-2.5-5.5-5.5-5.5h-24.2c-3,0-5.5,2.5-5.5,5.5v11.9h3.5V19.9c0-1.1,0.9-2,2-2h24.2
				c1.1,0,2,0.9,2,2v11.9h3.5L136.3,19.9L136.3,19.9z"/>
			<path class="st1" d="M369.2,19.9c0-3-2.5-5.5-5.5-5.5h-24.2c-3,0-5.5,2.5-5.5,5.5v11.9h3.5V19.9c0-1.1,0.9-2,2-2h24.2
				c1.1,0,2,0.9,2,2v11.9h3.5L369.2,19.9L369.2,19.9z"/>
			<path class="st1" d="M248.9,26.6c0,0.9-0.8,1.7-1.7,1.7h-24.6c-1.1,0-2-0.9-2-2v-8.4l7.3,0v-3.5l-7.3,0V5.1h-3.5v21.2
				c0,3,2.5,5.5,5.5,5.5h24.6v0c2.9,0,5.2-2.3,5.2-5.2V14.4h-3.5V26.6z"/>
			<path class="st1" d="M251.7,6.2L250.4,5c-0.2,0.2-1.5,1.7-1.5,4v1.4h3.5V9c0-1,0.6-1.7,0.6-1.7L251.7,6.2z"/>
			<path class="st1" d="M169.7,14.4L169.7,14.4h-24.5c-2.9,0-5.2,2.4-5.2,5.2v6.9c0,2.9,2.3,5.2,5.2,5.2h20.4v-3.5l-20.4,0
				c-0.9,0-1.7-0.8-1.7-1.7v-6.9c0-0.9,0.8-1.7,1.7-1.7h0h24.5c0.9,0,1.7,0.8,1.7,1.7v12.1h3.5V19.7
				C174.9,16.8,172.6,14.4,169.7,14.4"/>
			<path class="st1" d="M95.3,14.4c-0.1,0.3-0.3,0.9-0.7,1.3L81.3,29c-1.4,1.5-1.5,3.5-1.5,3.9v7.4h3.5v-7.4l0,0l0,0
				c0-0.2,0.1-1,0.5-1.4L97,18.2c1.4-1.4,1.7-3.1,1.8-3.8H95.3z"/>
		</g>
	</g>
</g>
</svg>
